<?xml version="1.0" encoding="utf-8"?>
<!-- Designed by Vexels.com - 2016 All Rights Reserved - https://vexels.com/terms-and-conditions/  -->

<svg version="1.1" id="Layer_1" xmlns="http://www.w3.org/2000/svg" xmlns:xlink="http://www.w3.org/1999/xlink" x="0px" y="0px"
	 width="1200px" height="1200px" viewBox="0 0 1200 1200" enable-background="new 0 0 1200 1200" xml:space="preserve">
<g>
	<g>
		<path d="M629.549,363.238c-38.268,37.626-127.655,106.73-269.032,108.449l-10.972-11.078L540.41,272.705L629.549,363.238z"/>
		<path d="M451.126,563.787c79.283-14.211,176.981-45.61,263.503-114.064l49.727,50.537
			c-38.248,37.552-127.655,106.693-269.013,108.451L451.126,563.787z"/>
		<path d="M585.905,700.809c79.313-14.248,177.067-45.647,263.523-114.14l43.118,43.815
			c-38.248,37.628-127.626,106.769-269.042,108.451L585.905,700.809z"/>
		<polygon points="369.455,100.46 605.549,151.191 416.279,337.491 227.008,523.753 180.033,286.837 133.363,50 		"/>
		<path d="M724.293,1065.006c76.381,1.109,152.514,21.049,228.989,9.206c137.778-21.391,30.742-198.867-48.972-230.956
			c-2.243-0.839-4.078-2.024-5.815-3.36l-89.227,87.784l-95.145-96.647c79.284-14.172,177.028-45.571,263.521-114.101l22.519,22.958
			l-66.993,65.894c57.92,28.841,97.238,79.266,120.911,140.155c18.872,48.667,20.963,114.753-25.584,148.293
			c-84.22,60.736-209.593,18.794-304.204,17.38C694.26,1111.152,694.23,1064.509,724.293,1065.006z"/>
		<g>
			<path d="M555.03,979.477c138.226-88.662,163.142,68.225,163.142,68.225c-1.995-6.838-21.133-64.29-89.569-20.438
				c0,0-67.173,55.812-89.368,32.203c15.05,25.441,63.611,88.548,160.143,57.3c-239.37,127.168-293.805-151.614-293.805-151.614
				C430.164,1052.172,555.03,979.477,555.03,979.477z"/>
		</g>
	</g>
</g>
</svg>
